<svg width="2130" height="897" viewBox="0 0 2130 897" fill="none" xmlns="http://www.w3.org/2000/svg">
<path fill-rule="evenodd" clip-rule="evenodd" d="M337.824 35.616C333.476 36.4683 328.736 37.8977 327.291 38.7902C325.843 39.685 318.33 41.3045 310.59 42.3916C284.427 46.0646 244.532 61.4613 211.016 80.8172C157.948 111.465 105.656 163.053 78.0768 211.965C68.6997 228.594 56.5376 254.077 53.7952 262.837C52.2539 267.758 50.2251 272.791 49.2878 274.021C47.3305 276.589 42.0156 296.388 35.4749 325.47C29.9408 350.081 27.4914 415.662 31.2158 439.552C37.8997 482.427 43.1945 502.481 55.7323 532.384C83.8793 599.523 121.28 646.368 183.554 692.486C204.637 708.1 243.718 729.232 251.509 729.232C253.359 729.232 255.423 730.127 256.101 731.223C257.714 733.833 291.127 744.89 297.401 744.89C300.076 744.89 304.859 746.588 308.026 748.664C323.553 758.837 461.058 759.468 473.164 749.422C475.179 747.749 481.051 745.619 486.214 744.687C521.083 738.394 578.003 709.569 616.482 678.72C635.991 663.082 667.388 631.888 677.25 618.348L682.026 611.794L1357.19 610.676L2032.36 609.557L2033.04 602.567C2033.45 598.326 2032.29 594.15 2030.08 591.942C2026.74 588.602 1972.61 588.307 1364.48 588.307C773.898 588.307 702.516 587.94 702.516 584.909C702.516 583.041 705.536 575.852 709.227 568.935C718.311 551.91 717.971 548.821 706.509 544.233C701.324 542.159 692.553 538.169 687.017 535.366L676.951 530.27L671.877 535.037C669.086 537.656 666.149 541.909 665.35 544.481C660.5 560.108 621.706 608.761 597.406 629.69C544.161 675.548 490.943 698.859 423.578 705.832C314.813 717.09 211.095 673.005 144.457 587.188C125.685 563.014 105.157 527.047 102.043 512.876C101.195 509.013 99.0545 504.651 97.2896 503.186C95.5224 501.718 94.0774 498.343 94.0774 495.683C94.0774 493.023 92.0642 485.118 89.6036 478.117C87.143 471.117 85.1141 462.595 85.0962 459.181C85.0783 455.768 83.6109 448.947 81.8393 444.026C77.3677 431.616 77.1999 364.996 81.5954 347.246C83.3425 340.191 85.7807 329.385 87.0132 323.233C90.4156 306.251 94.3056 292.869 98.719 282.969C109.031 259.835 122.314 234.69 131.19 221.501C145.018 200.95 177.704 164.665 191.161 154.922C197.436 150.381 203.071 146.025 203.686 145.245C206.254 141.985 243.773 118.972 255.135 113.689C261.901 110.541 272.077 105.819 277.75 103.195C283.42 100.571 289.388 98.4239 291.012 98.4239C292.636 98.4239 300.076 96.4935 307.545 94.1335C346.855 81.712 399.337 79.2201 446.283 87.5436C461.105 90.172 475.75 93.5743 478.826 95.1044C481.901 96.6344 487.941 98.6409 492.247 99.567C499.499 101.124 529.297 113.771 536.985 118.558C538.831 119.706 545.877 123.878 552.643 127.83C569.405 137.619 589.06 152.68 605.531 168.359L619.27 181.438L623.69 175.161C626.121 171.71 628.873 166.439 629.803 163.449C630.734 160.458 633.378 154.922 635.68 151.146C637.981 147.37 639.869 141.171 639.874 137.371C639.883 131.374 637.451 128.557 621.428 116.013C595.565 95.7598 581.133 85.8055 566.445 78.0904C559.468 74.4286 552.252 70.5767 550.406 69.5343C542.146 64.8636 526.143 58.1596 523.257 58.1596C521.512 58.1596 518.047 56.7324 515.558 54.9899C513.068 53.2451 507.058 51.0977 502.199 50.2163C497.34 49.335 490.648 47.239 487.326 45.5568C484.002 43.8769 478.398 42.5012 474.871 42.5012C471.343 42.5012 460.975 40.5126 451.831 38.0811C437.745 34.3343 428.372 33.6901 390.468 33.8645C365.862 33.9764 342.173 34.766 337.824 35.616ZM188.587 250.764L183.554 252.627V392.322C183.554 469.156 183.028 533.388 182.386 535.062C181.744 536.735 182.498 539.786 184.064 541.839C188.005 547.013 225.299 548.373 228.408 543.457C229.596 541.578 230.171 500.942 229.773 446.869C229.397 395.53 229.813 352.351 230.701 350.915C233.855 345.812 239.689 351.385 259.606 378.518C270.699 393.633 291.091 421.449 304.924 440.333C331.351 476.417 345.231 495.099 369.217 526.877L383.757 546.139L457.575 545.244C526.073 544.414 532.44 543.998 545.933 539.484C585.828 526.13 614.259 500.157 630.157 462.543C636.682 447.1 638.362 439.633 640.279 417.564C642.844 388.001 640.178 355.098 634.044 340.612C622.158 312.543 608.85 293.666 590.85 279.334C578.319 269.355 560.886 259.481 555.802 259.481C553.979 259.481 550.165 257.96 547.331 256.104C544.268 254.097 532.719 251.905 518.889 250.706C486.89 247.93 383.486 248.791 380.419 251.858C378.813 253.464 378.024 284.868 377.988 348.394C377.948 426.372 377.4 442.995 374.805 445.149C370.667 448.583 368.423 446.062 334.995 400.406C301.58 354.771 259.857 298.229 247.514 281.85C242.413 275.084 235.378 265.293 231.878 260.092C227.155 253.07 223.715 250.386 218.517 249.668C207.831 248.192 194.188 248.69 188.587 250.764ZM528.037 297.788C576.959 315.663 600.721 358.878 592.91 415.767C589.763 438.696 585.139 449.842 571.525 467.317C562.177 479.313 542.806 493.225 532.292 495.493C528.107 496.394 521.964 498.522 518.642 500.217C510.572 504.34 429.658 504.691 425.587 500.62C423.578 498.611 422.903 472.46 422.903 396.716C422.903 302.723 423.182 295.321 426.817 293.084C429.392 291.498 444.901 290.981 472.115 291.574C508.742 292.373 515.169 293.086 528.037 297.788Z" fill="#00ABE3"/>
<path fill-rule="evenodd" clip-rule="evenodd" d="M1632.06 335.351C1623.89 353.163 1622.23 366.3 1627 375.519C1635.58 392.125 1661.88 389.906 1668.69 372.004C1671.09 365.69 1668.91 360.556 1658.92 349.072C1655.24 344.828 1650.3 337.026 1647.96 331.736C1645.62 326.443 1642.45 322.115 1640.92 322.115C1639.39 322.115 1635.4 328.069 1632.06 335.351ZM759.78 349.137C756.147 351.253 755.865 358.4 755.865 448.48C755.865 523.696 756.494 545.94 758.661 547.309C762.525 549.749 833.786 548.396 854.197 545.492C884.033 541.251 915.198 521.707 926.421 500.202C944.929 464.733 945.49 434.685 928.317 398.478C922.092 385.35 903.389 368.459 885.333 359.652C870.451 352.396 865.42 351.177 841.825 349.108C808.059 346.146 764.889 346.162 759.78 349.137ZM1127.19 349.615L1121.6 352.445L1121.02 447.939L1120.43 543.434L1125.49 546.622C1132.89 551.284 1151.52 550.033 1155.49 544.607C1158 541.166 1158.59 528.622 1158.43 481.233C1158.32 446.856 1159.12 421.266 1160.35 420.035C1162.31 418.076 1166.3 422.398 1176.55 437.602C1178.31 440.221 1186.89 451.797 1195.61 463.326C1204.33 474.858 1221.64 498.07 1234.09 514.912C1246.54 531.755 1258.54 546.508 1260.76 547.696C1266.55 550.796 1288.38 549.201 1290.72 545.506C1293.08 541.772 1293.4 351.852 1291.05 350.488C1290.12 349.953 1283.83 348.846 1277.06 348.027C1255.74 345.448 1256.48 343.155 1256.82 410.743C1256.98 442.751 1256.45 470.632 1255.66 472.699C1252.58 480.727 1251.43 479.586 1222.26 439.68C1209.96 422.847 1192.85 399.61 1184.23 388.045C1175.62 376.478 1166.06 363.493 1162.98 359.189C1154.64 347.51 1139.41 343.437 1127.19 349.615ZM1857.3 349.029C1852.27 350.935 1845.24 365.743 1845.24 374.447C1845.24 377.342 1843.73 383.992 1841.88 389.222C1840.04 394.452 1838.53 401.122 1838.53 404.044C1838.53 409.126 1839.2 409.354 1854.14 409.354H1869.75L1873.81 400.966C1876.04 396.353 1880.8 383.869 1884.38 373.224C1892.32 349.62 1891.15 346.804 1873.56 347.07C1867.21 347.166 1859.9 348.047 1857.3 349.029ZM855.768 382.905C874.833 390.009 885.7 397.939 893.361 410.338C899.942 420.986 900.146 422.136 900.146 448.496C900.146 474.24 899.828 476.153 894.142 484.745C887.301 495.079 870.05 510.015 864.957 510.015C863.08 510.015 857.857 511.556 853.347 513.44C847.209 516.005 838.573 516.708 818.962 516.236L792.774 515.607L792.181 449.645C791.855 413.365 792.074 382.411 792.669 380.86C793.45 378.827 800.592 378.037 818.23 378.037C837.873 378.037 845.286 378.999 855.768 382.905ZM959.871 398.617C956.619 401.869 956.055 540.551 959.272 545.635C960.507 547.586 966.067 549.109 973.606 549.561C993.181 550.738 992.977 551.295 992.977 496.39C992.977 450.332 993.074 449.379 998.536 440.722C1005.25 430.088 1010.08 427.249 1021.46 427.249C1026.22 427.249 1031.32 426.041 1032.79 424.565C1036.47 420.89 1036.18 404.46 1032.35 399.221C1029.44 395.237 1028.14 395.13 1013.43 397.653C1002.62 399.505 995.783 399.662 991.801 398.147C983.705 395.069 963.115 395.373 959.871 398.617ZM1359.63 399.252C1337.07 404.194 1319.11 421.015 1316.28 439.852C1314.39 452.466 1316.15 454.01 1332.43 454.059C1338.89 454.077 1344.16 454.848 1344.14 455.77C1344.12 456.692 1339.15 460.181 1333.1 463.521C1317.95 471.873 1310.41 484.903 1310.32 502.877C1310.21 525.738 1321.6 540.43 1346.13 549.069C1358.83 553.543 1383.69 553.476 1397.08 548.93C1405.51 546.067 1409.29 545.841 1415.87 547.812C1426.9 551.118 1438.62 550.928 1443.5 547.36C1447.18 544.669 1447.43 540.198 1446.69 489.76C1445.78 427.972 1445.69 427.58 1428.12 412.117C1411.77 397.722 1387.47 393.157 1359.63 399.252ZM1452.24 399.581C1451.47 401.59 1452.96 407.377 1455.55 412.443C1460.79 422.708 1470.1 443.286 1479.45 465.277C1482.85 473.274 1488.43 485.856 1491.84 493.238C1495.26 500.62 1501.25 514.209 1505.17 523.436C1514.53 545.508 1520.69 551.136 1533.85 549.653C1539.42 549.024 1545.46 546.711 1547.65 544.374C1549.8 542.086 1559.84 521.088 1569.97 497.712C1592.43 445.892 1592.43 445.898 1602.35 424.592C1606.76 415.132 1610.36 404.815 1610.36 401.664C1610.36 396.031 1610.08 395.933 1593.86 395.933C1583.33 395.933 1576.56 396.944 1575.15 398.729C1573.93 400.268 1568.19 412.598 1562.39 426.131C1540.24 477.828 1534.47 489.883 1531.88 489.883C1530.62 489.883 1527.01 484.094 1523.86 477.021C1520.71 469.947 1515.1 457.615 1511.4 449.618C1507.7 441.622 1501.65 427.547 1497.96 418.342C1494.26 409.137 1489.61 400.36 1487.61 398.841C1485.58 397.293 1477.29 396.045 1468.81 396.004C1456.8 395.948 1453.35 396.693 1452.24 399.581ZM1629.75 397.425C1628.93 398.243 1628.26 431.907 1628.26 472.229C1628.26 528.447 1628.91 545.953 1631.06 547.306C1632.59 548.277 1639.11 549.297 1645.54 549.572C1664.83 550.398 1664.05 553.664 1664.05 472.276C1664.05 420.056 1663.34 400.592 1661.37 398.617C1658.55 395.805 1632.36 394.817 1629.75 397.425ZM1689.1 398.617C1687.13 400.592 1686.42 420.241 1686.42 473.106C1686.42 525.971 1687.13 545.62 1689.1 547.595C1690.58 549.071 1697.05 550.279 1703.48 550.279C1722.41 550.279 1722.21 550.87 1722.23 494.757C1722.24 450.589 1722.63 445.677 1726.56 439.702C1732.53 430.652 1739.31 427.415 1752.41 427.361C1766.43 427.303 1773.28 430.714 1779.13 440.675C1783.31 447.795 1783.79 452.88 1784.47 497.175C1785.19 543.68 1785.43 545.962 1789.84 548.324C1795.13 551.152 1813.01 549.351 1817.61 545.528C1819.97 543.571 1820.63 532.876 1820.63 496.726C1820.63 445.413 1818.82 434.794 1807.44 419.317C1794.92 402.29 1765.34 392.982 1739.11 397.816C1728.86 399.706 1723.08 399.832 1720.09 398.23C1714.17 395.065 1692.38 395.335 1689.1 398.617ZM1950.39 399.668C1936.81 403.348 1920.87 415.011 1915.67 425.08C1911.35 433.423 1911.42 452.573 1915.79 461.785C1921.44 473.685 1939.08 483.687 1959.32 486.465C1964.86 487.225 1975.17 489.95 1982.25 492.52C1994.38 496.925 1995.11 497.616 1995.11 504.595C1995.11 514.831 1988.56 518.963 1972.34 518.963C1961.22 518.963 1958.74 518.142 1953.82 512.833C1950.69 509.462 1948.14 505.004 1948.14 502.928C1948.14 495.075 1941.68 491.883 1927.19 492.578C1913.88 493.218 1913.44 493.433 1912.72 499.743C1911.24 512.766 1914.62 521.448 1925.36 532.192C1943.78 550.613 1969.86 556.601 1993.56 547.857C2021.1 537.701 2030.9 525.803 2030.9 502.559C2030.9 489.243 2030.22 487.029 2023.96 479.897C2014.53 469.158 1999.03 461.821 1981.64 459.87C1973.67 458.978 1962.87 456.363 1957.64 454.059C1949.61 450.518 1948.14 448.867 1948.14 443.38C1948.14 433.144 1955.25 428.368 1970.51 428.368C1985.85 428.368 1990.54 431.674 1996.19 446.469L2000.03 456.524L2014.91 455.866L2029.78 455.211L2030.46 444.63C2031.78 424.245 2015.1 405.858 1989.18 399.107C1974.3 395.23 1966.34 395.347 1950.39 399.668ZM1400.92 431.898C1408.19 437.609 1411.66 443.776 1410.03 448.041C1409.13 450.381 1402.87 451.672 1387.11 452.768C1375.18 453.596 1362.15 454.848 1358.15 455.551C1351.2 456.772 1350.88 456.519 1350.88 449.643C1350.88 444.458 1353 440.346 1358.49 434.855C1365.57 427.775 1367.09 427.249 1380.56 427.249C1391.81 427.249 1396.33 428.281 1400.92 431.898ZM1410.37 488.807C1413.95 503.081 1400.13 517.797 1380.88 520.204C1363.57 522.367 1352.43 518.761 1347.97 509.554C1344.46 502.311 1344.91 500.043 1351.63 491.042C1354.92 486.635 1357.91 486.196 1402.85 483.534C1407.66 483.248 1409.26 484.371 1410.37 488.807ZM1064.14 516.446C1058.25 521.71 1056.99 524.445 1057.19 531.525C1057.38 538.417 1058.94 541.428 1064.83 546.345C1075.11 554.932 1084.08 554.552 1093.2 545.139C1102.67 535.366 1102.88 525.624 1093.81 516.553C1084.92 507.666 1074.01 507.626 1064.14 516.446ZM1492.93 658.769C1491.7 659.192 1486.03 660.163 1480.33 660.928C1472.57 661.97 1467.66 664.449 1460.76 670.826C1452.02 678.897 1451.54 679.993 1451.54 692.202C1451.54 713.793 1460.34 719.486 1510.34 730.252C1517.74 731.845 1522.06 739.909 1519.97 748.228C1518.35 754.683 1507.5 760.549 1497.18 760.549C1489.87 760.549 1476.15 752.402 1476.15 748.062C1476.15 738.665 1459.83 732.453 1453.02 739.258C1445.84 746.443 1458.89 766.599 1475.48 773.936C1505.89 787.391 1545.49 769.188 1545.49 741.75C1545.49 734.29 1544.03 731.54 1535.93 723.816C1527.5 715.766 1523.75 714.07 1504.06 709.406C1480.03 703.715 1473.91 700.181 1473.91 691.976C1473.91 682.595 1481.33 677.783 1495.78 677.783C1510.5 677.783 1516.69 681.076 1520.85 691.122C1523.62 697.794 1534.05 702.973 1540.26 700.756C1549.09 697.602 1542.64 676.421 1530.02 667.086C1522.21 661.31 1500.03 656.338 1492.93 658.769ZM1631.87 660.452C1622.89 662.315 1618.61 665.077 1608 675.861C1595.56 688.491 1595 689.572 1593.48 703.736C1591.15 725.501 1593.6 740.79 1601.23 752.098C1610.04 765.157 1613.96 768.36 1627.78 773.793C1643.01 779.779 1660.47 779.784 1675.71 773.802C1689.26 768.485 1695.3 763.441 1704.64 749.637C1713.54 736.473 1712.58 730.57 1701.36 729.646C1692.1 728.885 1686.42 732.066 1686.42 738.014C1686.42 742.584 1674.22 754.247 1665.62 757.893C1648.88 764.998 1628.38 756.855 1618.8 739.298C1611.41 725.736 1610.89 713.544 1617.1 699.494C1622.89 686.409 1632.49 678.429 1644.65 676.606C1663.55 673.77 1681.72 682.566 1686.43 696.833C1689.12 704.975 1694.64 707.905 1704.65 706.489C1712.86 705.326 1712.41 697.374 1703.36 683.979C1693.6 669.542 1687.18 664.755 1672.24 660.778C1659.08 657.275 1647.6 657.181 1631.87 660.452ZM760.684 661.684C758.286 663.348 757.735 674.83 757.981 718.119C758.151 748.009 758.811 773.308 759.447 774.337C761.433 777.549 808.403 776.449 822.16 772.865C873.412 759.517 880.564 690.719 833.247 666.203C826.126 662.514 818.877 661.483 794.101 660.637C777.02 660.053 762.375 660.512 760.684 661.684ZM868.988 663.402C863.532 668.86 865.463 674.018 874.679 678.608C879.906 681.212 880.027 681.946 880.631 715.352C881.253 749.677 879.781 758.312 873.303 758.312C868.221 758.312 864.879 766.443 867.753 771.814C869.986 775.986 872.001 776.312 891.878 775.728L913.567 775.089L914.254 768.002C914.827 762.112 913.88 760.408 908.662 757.909L902.383 754.9L901.77 717.698L901.159 680.494L907.921 678.136C913.384 676.233 914.686 674.51 914.686 669.191C914.686 660.892 912.028 659.888 890.057 659.888C877.083 659.888 871.587 660.805 868.988 663.402ZM975.404 662.854C974.051 664.485 970.311 671.784 967.092 679.071C963.875 686.359 958.912 697.356 956.062 703.507C942.28 733.256 928.107 767.892 928.107 771.823C928.107 775.444 929.66 776.207 937.023 776.207C945.718 776.207 946.112 775.86 952.97 762.226C956.836 754.538 961.128 747.496 962.509 746.579C963.889 745.664 974.261 745.217 985.56 745.59C1004.21 746.203 1006.52 746.769 1010.58 751.731C1013.05 754.735 1015.72 759.703 1016.51 762.772C1019.35 773.8 1029.89 780.394 1037.86 776.129C1043.39 773.169 1043.31 769.85 1037.36 756.694C1014.23 705.548 1001.22 675.676 998.834 668.243C996.53 661.067 980.037 657.273 975.404 662.854ZM1058.3 662.572C1055.46 665.411 1054.25 765.586 1056.97 772.668C1058.11 775.643 1062.93 776.207 1087.2 776.207C1121.62 776.207 1131.57 773.664 1141.95 762.22C1148.3 755.214 1149.56 752.111 1149.56 743.47C1149.56 736.804 1147.86 730.364 1144.79 725.393C1140.09 717.786 1140.07 717.495 1144 705.961C1151.36 684.288 1142.39 665.82 1122.66 662.013C1107.09 659.009 1061.46 659.405 1058.3 662.572ZM1163.16 661.966C1160.56 663.612 1160.02 673.631 1160.13 717.689C1160.21 747.232 1160.95 772.485 1161.76 773.807C1162.73 775.368 1176.86 776.207 1202.18 776.207C1238.83 776.207 1241.26 775.943 1243.51 771.733C1245.21 768.555 1245.21 765.964 1243.51 762.786C1241.33 758.701 1238.83 758.312 1214.8 758.312C1197.31 758.312 1187.58 757.41 1185.8 755.627C1182.66 752.491 1182.26 734.055 1185.22 729.371C1186.79 726.892 1192.03 726.261 1208.11 726.619C1219.59 726.876 1230.3 726.203 1231.93 725.127C1233.7 723.957 1234.6 720.119 1234.17 715.576L1233.45 707.981L1210.04 707.339C1194.77 706.919 1186.03 705.753 1184.91 703.984C1182.21 699.732 1182.82 683.442 1185.8 680.467C1187.58 678.687 1197.27 677.783 1214.61 677.783C1243.97 677.783 1248.63 675.817 1243.89 665.413L1241.37 659.888L1203.85 659.921C1183.22 659.941 1164.91 660.861 1163.16 661.966ZM1258.28 664.708C1255.89 668.12 1255.54 670.705 1257.06 673.558C1258.78 676.763 1262.54 677.723 1275.41 678.244L1291.6 678.901L1292.83 726.995C1293.51 753.446 1294.27 775.341 1294.51 775.648C1294.76 775.954 1298.45 776.207 1302.71 776.207C1308.21 776.207 1311.17 774.887 1312.89 771.668C1314.43 768.783 1315.18 751.635 1314.94 724.584C1314.74 701.181 1315.27 681.331 1316.13 680.47C1316.98 679.606 1324.91 678.398 1333.73 677.783C1348.38 676.761 1349.83 676.219 1350.5 671.509C1352.04 660.63 1349.05 659.888 1303.76 659.888C1263.19 659.888 1261.54 660.062 1258.28 664.708ZM1362.56 662.523C1359.48 665.61 1358.58 768.534 1361.6 773.283C1363.46 776.22 1437.85 778.021 1442.35 775.238C1445.64 773.209 1445.54 761.249 1442.22 759.2C1440.79 758.314 1428.34 757.813 1414.56 758.088C1393.91 758.5 1388.87 757.947 1385.85 754.934C1381.54 750.619 1380.89 733.677 1384.88 729.679C1386.6 727.961 1395.36 726.995 1409.22 726.995C1433.13 726.995 1436.75 725.244 1435.49 714.267L1434.77 707.981L1411.41 707.339C1398.56 706.986 1386.73 705.603 1385.13 704.268C1381.32 701.116 1381.33 683.523 1385.14 680.367C1386.81 678.98 1400.07 677.656 1415.9 677.295L1443.71 676.665V668.835V661.006L1404.51 660.398C1375.9 659.953 1364.56 660.528 1362.56 662.523ZM1761.19 665.865C1758.15 669.153 1755.03 674.437 1754.28 677.609C1753.52 680.78 1749.62 690.422 1745.63 699.034C1728.44 736.032 1713.41 772.4 1714.54 774.23C1715.21 775.317 1719.74 776.207 1724.6 776.207C1733.24 776.207 1733.59 775.885 1740.53 761.821C1748.61 745.438 1749.56 744.964 1774.32 744.922C1790.22 744.893 1792.24 745.403 1797.11 750.659C1800.05 753.831 1803.08 759.265 1803.85 762.73C1805.61 770.776 1811.71 776.283 1819.49 776.867C1831.97 777.804 1831.53 772.433 1816.26 737.828C1808.48 720.181 1800.82 703.228 1799.26 700.152C1797.69 697.076 1793.55 687.655 1790.06 679.212C1785.69 668.625 1782.12 663.248 1778.55 661.876C1770.35 658.729 1767.12 659.474 1761.19 665.865ZM1845.8 662.362C1843.72 664.511 1843 678.886 1843 718.222C1843 773.069 1843.08 773.55 1852.44 776.883C1860.06 779.596 1863.13 772.655 1863.13 752.742C1863.13 728.268 1863.73 726.995 1875.2 726.995C1884.22 726.995 1884.84 727.465 1892.18 739.857C1896.37 746.933 1903.22 758.005 1907.41 764.463C1914.74 775.771 1915.39 776.207 1925.11 776.207C1935 776.207 1935.17 776.084 1933.67 770.055C1932.83 766.673 1928.83 758.871 1924.8 752.719C1909.95 730.093 1909.12 725.492 1918.88 719.94C1938.38 708.845 1939.38 679.434 1920.73 665.755C1915.37 661.825 1910.29 661.125 1881.58 660.353C1856.57 659.68 1847.92 660.165 1845.8 662.362ZM1950.89 661.756C1948.7 663.149 1948.19 676.202 1948.66 719.322L1949.26 775.089H1990.64H2032.02V767.259V759.43L2004.2 758.799C1988.38 758.439 1975.12 757.115 1973.45 755.728C1970.44 753.236 1969.42 736.909 1971.86 730.534C1972.97 727.648 1977.21 726.988 1994.79 726.961C2006.66 726.941 2017.44 726.187 2018.76 725.284C2022.78 722.532 2024.3 715.728 2021.91 711.249C2019.94 707.563 2016.52 706.93 1995.63 706.38L1971.62 705.744L1970.96 692.952C1970.15 677.546 1969.11 678.011 2006.3 677.215C2031.26 676.68 2032.04 676.512 2032.75 671.509C2034.27 660.805 2030.95 659.886 1990.92 659.921C1970.47 659.941 1952.45 660.767 1950.89 661.756ZM827.091 685.386C837.309 691.838 839.602 695.287 841.814 707.527C844.431 722.022 841.103 735.67 832.676 744.998C825.643 752.782 823.691 753.601 805.842 756.256C787.77 758.945 786.408 758.864 783.534 754.932C779.359 749.223 779.129 684.547 783.267 680.244C788.101 675.215 816.204 678.514 827.091 685.386ZM1118.24 680.678C1122.79 682.975 1123.84 685.165 1123.84 692.323C1123.84 699.481 1122.79 701.671 1118.24 703.968C1111.05 707.606 1082.01 707.76 1078.43 704.178C1074.95 700.702 1074.95 683.944 1078.43 680.467C1082.01 676.886 1111.05 677.04 1118.24 680.678ZM1908.67 682.257C1914.37 688.238 1914.97 694.707 1910.36 700.4C1906.51 705.154 1903.88 705.832 1886.54 706.545C1871.87 707.147 1866.57 706.594 1865.13 704.308C1862.22 699.714 1862.76 683.536 1865.93 680.293C1869.97 676.159 1904.37 677.741 1908.67 682.257ZM989.803 701.83C990.441 703.982 992.993 709.585 995.476 714.28C1001.22 725.147 998.465 729.245 985.435 729.198C971.501 729.147 969.506 727.12 973.058 716.645C976.057 707.805 983.274 697.915 986.728 697.915C987.781 697.915 989.166 699.678 989.803 701.83ZM1778.2 704.067C1779.41 707.449 1781.99 713.032 1783.93 716.473C1786.71 721.414 1786.89 723.414 1784.76 725.979C1781.19 730.272 1760.56 730.449 1758.93 726.201C1757.12 721.477 1768.4 697.915 1772.47 697.915C1774.42 697.915 1776.99 700.684 1778.2 704.067ZM1120.48 729.876C1124.6 731.948 1126.23 734.744 1126.66 740.468C1127.47 751.292 1124.83 754.207 1112.32 756.26C1084.12 760.895 1075.74 757.784 1075.74 742.676C1075.74 727.492 1076.41 726.991 1096.67 727.029C1106.79 727.046 1117.38 728.313 1120.48 729.876Z" fill="#FF2020"/>
</svg>
